Patient4_TMGait_0pt5_01_left_38_EMG.mot
version=1
nRows=13
nColumns=33
inDegrees=no
endheader
time	1LAddLong	2LGlutMax	3LGlutMed	4LIliopsoas	5LSemiMemb	6LBicFemLong	7LRecFem	8LVastMed	9LVastLat	10LGasMed	11LTibAnt	12lTibPost	13LPeroneusLong	14LSol	15LExtDigLong	16LFlexDigLong	17RAddLong	18RGlutMax	19RGlutMed	20RIliopsoas	21RSemiMemb	22RBicFemLong	23RRecFem	24RVastMed	25RVastLat	26RGasMed	27RTibAnt	28RTibPost	29RPeroneusLong	30RSol	31RExtDigLong	32RFlexDigLong
51.065	0.000916	0.80093	0.014954	-0.002289	-0.088806	0.12177	0.39093	-0.020599	-0.071411	-0.19562	0.06424	-0.009613	0.46036	-0.19577	0.13779	0.019379	0.02655	0.071259	-0.13779	-0.016785	-0.061188	-0.063934	0.46005	-0.16449	0.027008	-0.002899	-0.050354	-0.003052	0.17212	0.25711	0.002899	-0.00473
51.066	0.013428	0.68008	0.25604	-0.00061	-0.02243	0.098877	0.38437	0.003204	0.072479	-0.3122	0.053253	0.003204	0.34363	-0.019531	0.14603	0.005035	0.005341	0.056458	-0.00351	0.071716	-0.056305	-0.069885	0.38895	-0.14771	0.046387	0.006256	-0.17761	-0.007782	-0.021515	-0.076447	0.000305	-0.01236
51.067	0.024109	0.68497	0.23193	0.009613	-0.002594	0.051727	0.31097	0.010376	0.21576	-0.28076	-0.026703	0.001526	-0.48004	0.017242	0.13977	0.000763	0.018158	0.035858	0.10376	0.112	-0.027466	-0.01236	0.38391	-0.15335	0.044556	0.006409	-0.17639	-0.005035	0.088959	-0.14511	-0.003052	-0.010834
51.068	0.029297	0.62744	0.12512	0.012665	0.030975	-0.18326	0.27298	0.00885	0.21454	-0.20416	-0.041656	-0.007324	-0.39154	-0.2092	-0.031891	-0.014954	0.032349	0.060577	0.075226	0.28748	-0.028534	-0.021057	0.38742	-0.095978	0.0383	-0.005341	0.12436	-0.00061	-0.024872	-0.023346	0.003052	-0.001831
51.069	0.016937	0.5191	0.006714	0.011292	0.077057	-0.23209	0.29419	0.005798	0.004425	-0.15015	-0.059204	-0.014496	-0.75684	-0.18967	-0.14801	-0.0383	0.045013	0.036621	0.026855	0.233	-0.030365	0.023041	0.3862	-0.11536	0.048218	-0.017548	0.27954	-0.00412	-0.13534	-0.26901	-0.002289	-0.003052
51.07	0.013885	0.39444	-0.1207	0.012665	0.14481	0.037537	0.3122	-0.004578	-0.041809	-0.056152	-0.009308	-0.020294	-0.31708	-0.055237	-0.001831	-0.027466	0.070496	0.002136	-0.016937	0.050049	-0.066376	0.024567	0.30945	-0.088654	0.051727	-0.013733	0.34454	-0.001831	-0.16525	-0.41794	-0.002136	0.001373
51.071	0.01297	0.37842	-0.121	-0.000153	0.10193	0.36575	0.35233	-0.023041	-0.16907	0.074005	0.002747	-0.016632	-0.12451	-0.001221	0.075073	-0.006561	0.14435	0.034637	-0.018768	-0.060272	-0.076141	0.044556	0.34714	-0.20798	0.047913	-0.005341	0.41901	-0.012207	-0.22964	-0.075989	-0.003357	-0.007172
51.072	0.011292	0.44037	-0.103	0.014191	0.022278	0.29953	0.38925	-0.00061	-0.41565	0.224	-0.049744	-0.015717	0.2742	-0.10864	-0.18829	-0.012054	0.11292	0.085144	0.035095	-0.12054	-0.099335	0.027161	0.37598	-0.18265	0.031433	-0.00946	0.37262	0.003357	-0.28702	-0.11276	-0.007172	-0.000305
51.073	0.022736	0.31342	0.008545	0.020599	-0.090027	0.26093	0.29343	0.007629	-0.31357	0.16922	-0.031281	-0.015869	0.12405	-0.20157	-0.36072	0.000458	0.088806	0.098114	0.098114	-0.14008	-0.075073	-0.012054	0.35645	-0.13306	0.020447	-0.010071	0.11246	-0.006409	-0.29266	-0.4361	-0.005798	-0.002441
51.074	0.024261	0.22873	-0.063477	0.011749	-0.066376	0.24353	0.22186	0.019531	-0.04837	0.13046	-0.03006	-0.025177	0.054321	-0.25253	-0.33447	0.001678	0.016479	0.042267	-0.006561	-0.059052	-0.084381	0.01358	0.3009	-0.13229	0.051727	-0.001526	0.036621	-0.009003	-0.11261	-0.51895	-0.003357	-0.000458
51.075	0.019989	0.2359	-0.19638	0.020447	-0.051117	0.16983	0.10727	0.012512	0.19501	0.42114	-0.059509	-0.029449	0.13977	-0.26703	-0.1918	-0.001221	-0.055389	-0.011139	-0.086212	-0.032349	-0.11505	0.047913	0.24353	-0.12344	0.066071	0.008087	-0.18585	-0.001984	-0.024414	-0.19073	-0.001373	-0.010681
51.076	0.033875	0.27924	-0.1976	0.01709	0.032654	0.033722	0.0383	0.00061	0.40497	0.76126	-0.087585	-0.026855	-0.10971	-0.22461	-0.059814	-0.00412	-0.039825	0.000458	-0.05249	-0.001526	-0.13718	0.12924	0.21606	-0.070496	0.065002	0.00061	0.043945	-0.016632	0.072937	-0.15289	-0.000153	-0.001526
51.077	0.036163	0.31616	-0.23056	0.014038	0.040894	0.075226	0.14832	0.006409	0.62103	0.7724	0.012512	-0.024109	0.2063	-0.28381	0.057983	-0.005341	-0.048828	-0.04776	0.018768	-0.024872	-0.12878	0.17487	0.28305	-0.085907	0.053864	0.000305	0.092926	-0.005341	0.061951	-0.1384	-0.000153	-0.005493
